<?xml version="1.0" encoding="UTF-8"?>
<svg width="42px" height="40px" viewBox="0 0 42 40" version="1.1" xmlns="http://www.w3.org/2000/svg" xmlns:xlink="http://www.w3.org/1999/xlink">
    <title>products-briefcase</title>
    <g id="New-Lead-Flow" stroke="none" stroke-width="1" fill="none" fill-rule="evenodd">
        <g id="products-briefcase" fill="#4EA1FF" fill-rule="nonzero">
            <path d="M4.34027778,39.9983398 C3.30389201,40.0001825 2.30960925,39.6048191 1.578125,38.9 C0.694441883,38.0584096 0.286167651,36.8602539 0.480902778,35.68 L2.39930556,23.69 C1.00360277,23.4148525 0.00134871307,22.2361669 0,20.8683333 L0,10.7583333 C0.00287202404,8.26894188 2.10479968,6.25183702 4.69791667,6.25 L11.71875,6.25 L11.71875,5.935 C11.7622801,4.31252608 12.4779023,2.77368247 13.7070903,1.65935773 C14.9362783,0.545032992 16.5775624,-0.0527852121 18.2673611,-0.00166666667 L23.4375,-7.38992201e-16 L23.6284722,-0.00333333333 C27,-0.00333333333 29.8350694,2.64333333 29.9479167,5.895 L29.9479167,6.25 L36.9670139,6.25 C39.5600173,6.25275143 41.6618841,8.26905277 41.6666667,10.7583333 L41.6666667,20.8683333 C41.6666667,22.2583333 40.6354167,23.4216667 39.2690972,23.69 L41.1892361,35.6783333 C41.3610696,36.7583998 41.0341311,37.8567359 40.2937848,38.6865641 C39.5534384,39.5163923 38.473181,39.9953327 37.3350694,39.9983398 L4.34027778,39.9983398 Z M3.05381944,36.0583333 C2.99433956,36.4188908 3.10246629,36.786359 3.34966192,37.0637526 C3.59685755,37.3411462 3.95828076,37.5005892 4.33854167,37.5 L37.3246528,37.5 L37.3767361,37.5016667 C37.4305556,37.5016667 37.4722222,37.4933333 37.515625,37.4866667 C37.8594657,37.4390282 38.1690875,37.2611175 38.3752779,36.9927045 C38.5814683,36.7242916 38.6670339,36.3877584 38.6128472,36.0583333 L36.640625,23.7483333 L25.8680556,23.7483333 C25.2661781,25.9488543 23.1997428,27.4869316 20.8298611,27.4983333 C18.4599795,27.4869316 16.3935441,25.9488543 15.7916667,23.7483333 L5.02430556,23.7483333 L3.05381944,36.0583333 L3.05381944,36.0583333 Z M18.2291667,22.4983333 C18.2291667,23.8766667 19.3975694,24.9983333 20.8333333,24.9983333 C22.2690972,24.9983333 23.4375,23.8766667 23.4375,22.4983333 L23.4375,18.7483333 L18.2291667,18.7483333 L18.2291667,22.4983333 Z M38.6666667,21.2483333 C38.7716482,21.2483333 38.87233,21.2082977 38.9465631,21.1370339 C39.0207963,21.0657701 39.0625,20.9691156 39.0625,20.8683333 L39.0625,10.7583333 C39.0625,9.65 38.1215278,8.74833333 36.9670139,8.74833333 L4.69791667,8.74833333 C3.54275838,8.75108168 2.60702953,9.64938138 2.60416667,10.7583333 L2.60416667,20.8683333 C2.60416667,21.0783333 2.78125,21.2483333 3,21.2483333 L15.625,21.2483333 L15.625,18.7483333 C15.625,17.37 16.7934028,16.2483333 18.2291667,16.2483333 L23.4375,16.2483333 C24.8732639,16.2483333 26.0416667,17.37 26.0416667,18.7483333 L26.0416667,21.2483333 L38.6666667,21.2483333 L38.6666667,21.2483333 Z M27.34375,6.25 L27.34375,5.935 C27.2777778,4.04833333 25.5972222,2.49666667 23.5972222,2.49666667 L23.4774306,2.49833333 L18.2291667,2.49833333 L18.0833333,2.49666667 C16.0539355,2.4857583 14.3851567,4.02938248 14.3211806,5.97666667 L14.3211806,6.24833333 L27.34375,6.24833333 L27.34375,6.25 Z" id="Shape"></path>
        </g>
    </g>
</svg>