<?xml version="1.0" encoding="UTF-8"?>
<svg width="37px" height="41px" viewBox="0 0 37 41" version="1.1" xmlns="http://www.w3.org/2000/svg" xmlns:xlink="http://www.w3.org/1999/xlink">
    <title>crypto-audience-icon</title>
    <g id="Page-1" stroke="none" stroke-width="1" fill="none" fill-rule="evenodd">
        <g id="Artboard" transform="translate(-694.000000, -198.000000)" fill="#4EA1FF" fill-rule="nonzero">
            <g id="crypto-audience-icon" transform="translate(694.000000, 198.000000)">
                <path d="M22.3916667,40.0066947 C21.9639438,40.0066947 21.5382345,39.9481092 21.1266667,39.8316667 L6.05666667,35.735 C2.99046009,34.7976947 0.871662251,31.9988387 0.801666667,28.7933333 L0.801666667,12.1866667 C0.773414895,10.7813511 1.25807628,9.41387126 2.165,8.34 C2.24850455,8.20263403 2.35772181,8.08266482 2.48666667,7.98666667 C3.53757031,6.91601657 4.96207196,6.29365567 6.46166667,6.25 L22.115,6.25 C22.8053559,6.25 23.365,6.80964406 23.365,7.5 C23.365,8.19035594 22.8053559,8.75 22.115,8.75 L6.96166667,8.75 L21.8216667,12.9733333 C24.8704198,13.963808 26.9647776,16.7671897 27.05,19.9716667 L27.05,28.75 L29.4466667,28.75 C31.5804056,28.7370532 33.3171251,27.0298697 33.3666667,24.8966667 L33.3666667,18.755 C33.3666667,18.0646441 33.9263107,17.505 34.6166667,17.505 C35.3070226,17.505 35.8666667,18.0646441 35.8666667,18.755 L35.8666667,24.9216667 C35.7983333,28.4166667 32.915,31.25 29.4383333,31.25 L27.05,31.25 L27.05,34.9633333 C27.1504748,36.1766315 26.7704137,37.3808565 25.9916667,38.3166667 C25.1056962,39.3911973 23.784339,40.0115011 22.3916667,40.0066947 Z M3.73833333,10.4333333 C3.43833333,10.9566667 3.28666667,11.5466667 3.3,12.1583333 L3.3,28.7666667 C3.34911545,30.8740929 4.74057029,32.7139278 6.755,33.335 L21.7933333,37.4233333 C22.0546938,37.4980382 22.3276708,37.5234708 22.5983333,37.4983333 C23.175,37.4433333 23.6966667,37.1683333 24.0666667,36.7216667 C24.4366667,36.275 24.61,35.7116667 24.5566667,35.135 C24.5531907,35.0962098 24.5515222,35.0572787 24.5516667,35.0183333 L24.5516667,20 C24.4934445,17.8787745 23.1085722,16.0229389 21.0916667,15.3633333 L3.73833333,10.4333333 Z" id="Shape"></path>
                <path d="M18.2983333,31.25 C16.23,31.25 14.5483333,29.5683333 14.5483333,27.5 C14.5483333,25.4316667 16.23,23.75 18.2983333,23.75 C20.3666667,23.75 22.0483333,25.4316667 22.0483333,27.5 C22.0483333,29.5683333 20.3666667,31.25 18.2983333,31.25 Z M18.2983333,26.25 C17.6079774,26.25 17.0483333,26.8096441 17.0483333,27.5 C17.0483333,28.1903559 17.6079774,28.75 18.2983333,28.75 C18.9886893,28.75 19.5483333,28.1903559 19.5483333,27.5 C19.5483333,26.8096441 18.9886893,26.25 18.2983333,26.25 Z" id="Shape"></path>
                <path d="M29.615,15 C28.9246441,15 28.365,14.4403559 28.365,13.75 L27.115,13.75 C26.4246441,13.75 25.865,13.1903559 25.865,12.5 L25.865,2.5 C25.865,1.80964406 26.4246441,1.25 27.115,1.25 L28.365,1.25 C28.365,0.559644063 28.9246441,0 29.615,0 C30.3053559,0 30.865,0.559644063 30.865,1.25 C32.9353061,1.25183782 34.6131622,2.92969392 34.615,5 C34.615,5.925 34.2666667,6.81666667 33.6566667,7.5 C34.265,8.18333333 34.615,9.075 34.615,10 C34.6131622,12.0703061 32.9353061,13.7481622 30.865,13.75 C30.865,14.4403559 30.3053559,15 29.615,15 L29.615,15 Z M30.865,11.25 C31.5553559,11.25 32.115,10.6903559 32.115,10 C32.115,9.30964406 31.5553559,8.75 30.865,8.75 L28.365,8.75 L28.365,11.25 L30.865,11.25 Z M30.865,6.25 C31.5553559,6.25 32.115,5.69035594 32.115,5 C32.115,4.30964406 31.5553559,3.75 30.865,3.75 L28.365,3.75 L28.365,6.25 L30.865,6.25 Z" id="Shape"></path>
            </g>
        </g>
    </g>
</svg>