<?xml version="1.0" encoding="UTF-8"?>
<svg width="44px" height="40px" viewBox="0 0 44 40" version="1.1" xmlns="http://www.w3.org/2000/svg" xmlns:xlink="http://www.w3.org/1999/xlink">
    <title>developer-audience-icon</title>
    <g id="Page-1" stroke="none" stroke-width="1" fill="none" fill-rule="evenodd">
        <g id="Artboard" transform="translate(-398.000000, -198.000000)" fill="#4EA1FF" fill-rule="nonzero">
            <g id="developer-audience-icon" transform="translate(398.000000, 198.000000)">
                <path d="M5.47272727,39.0963636 C3.21421155,39.0943587 1.38382308,37.2639703 1.38181818,35.0054545 L1.38181818,5.00545455 C1.38382308,2.74693882 3.21421155,0.916550352 5.47272727,0.914545455 L38.2,0.914545455 C40.4585157,0.916550352 42.2889042,2.74693882 42.2909091,5.00545455 L42.2909091,35.0054545 C42.2889042,37.2639703 40.4585157,39.0943587 38.2,39.0963636 L5.47272727,39.0963636 L5.47272727,39.0963636 Z M4.10909091,35.0054545 C4.10909091,35.7581818 4.72,36.3690909 5.47272727,36.3690909 L38.2,36.3690909 C38.9531156,36.3690909 39.5636364,35.7585701 39.5636364,35.0054545 L39.5636364,11.8236364 L4.10909091,11.8236364 L4.10909091,35.0054545 Z M39.5636364,9.09636364 L39.5636364,5.00545455 C39.5636364,4.25233898 38.9531156,3.64181818 38.2,3.64181818 L5.47272727,3.64181818 C4.7196117,3.64181818 4.10909091,4.25233898 4.10909091,5.00545455 L4.10909091,9.09636364 L39.5636364,9.09636364 Z" id="Shape"></path>
                <path d="M21.8363636,30.9145455 C21.0832481,30.9145455 20.4727273,30.3040247 20.4727273,29.5509091 C20.4727273,28.7977935 21.0832481,28.1872727 21.8363636,28.1872727 L30.0181818,28.1872727 C30.7712974,28.1872727 31.3818182,28.7977935 31.3818182,29.5509091 C31.3818182,30.3040247 30.7712974,30.9145455 30.0181818,30.9145455 L21.8363636,30.9145455 L21.8363636,30.9145455 Z" id="Path"></path>
                <path d="M13.6545455,30.9145496 C13.104295,30.9112809 12.6096196,30.5784772 12.3992501,30.0700179 C12.1888805,29.5615586 12.3038148,28.9765354 12.6909091,28.5854545 L17.1818182,24.0945455 L12.6909091,19.6036364 C12.4327273,19.3472727 12.2909091,19.0036364 12.2909091,18.64 C12.2909091,18.2763636 12.4327273,17.9327273 12.6909091,17.6763636 C12.9472727,17.4181818 13.2909091,17.2763636 13.6545455,17.2763636 C14.0181818,17.2763636 14.3618182,17.4181818 14.6181818,17.6763636 L20.0727273,23.1309091 C20.603671,23.6643406 20.603671,24.5265685 20.0727273,25.06 L14.6181818,30.5145455 C14.3633819,30.7713736 14.0163229,30.9154359 13.6545455,30.9145496 L13.6545455,30.9145496 Z" id="Path"></path>
            </g>
        </g>
    </g>
</svg>