<?xml version="1.0" encoding="UTF-8"?>
<svg width="40px" height="40px" viewBox="0 0 40 40" version="1.1" xmlns="http://www.w3.org/2000/svg" xmlns:xlink="http://www.w3.org/1999/xlink">
    <!-- Generator: Sketch 61 (89581) - https://sketch.com -->
    <title>icon-formats</title>
    <desc>Created with Sketch.</desc>
    <g id="Page-1" stroke="none" stroke-width="1" fill="none" fill-rule="evenodd">
        <g id="icon-formats" fill="#4EA1FF" fill-rule="nonzero">
            <path d="M11.25,17.5 C13.3203061,17.5018378 14.9981622,19.1796939 15,21.25 L15,36.25 C14.9981622,38.3203061 13.3203061,39.9981622 11.25,40 L3.75,40 C1.67969392,39.9981622 0.00183782273,38.3203061 0,36.25 L0,21.25 C0.00183782273,19.1796939 1.67969392,17.5018378 3.75,17.5 L11.25,17.5 Z M12.5,35 L2.5,35 L2.5,36.25 C2.5,36.94 3.06,37.5 3.75,37.5 L11.25,37.5 C11.9403559,37.5 12.5,36.9403559 12.5,36.25 L12.5,35 Z M36.25,0 C38.3203061,0.00183782273 39.9981622,1.67969392 40,3.75 L40,21.25 C39.9981622,23.3203061 38.3203061,24.9981622 36.25,25 L27.725,25 L28.5583333,30 L31.25,30 C31.9403559,30 32.5,30.5596441 32.5,31.25 C32.5,31.9403559 31.9403559,32.5 31.25,32.5 L25,32.5 C24.3096441,32.5 23.75,31.9403559 23.75,31.25 C23.75,30.5596441 24.3096441,30 25,30 L26.025,30 L25.0183333,23.9566667 C25.0125224,23.9174709 25.0091825,23.8779484 25.0083333,23.8383333 C25.0013115,23.8094446 24.9985047,23.7796922 25,23.75 L25.0033333,23.6883333 L25.0116667,23.6016667 L25.0283333,23.4866667 C25.0377554,23.4436837 25.0500042,23.4013695 25.065,23.36 C25.0766667,23.3233333 25.0883333,23.2866667 25.1033333,23.2533333 C25.1216667,23.2116667 25.1383333,23.1816667 25.155,23.15 C25.1754846,23.1117675 25.1977307,23.0745053 25.2216667,23.0383333 C25.245,23.005 25.27,22.975 25.2933333,22.9466667 L25.37,22.8616667 C25.405,22.8266667 25.4366667,22.8016667 25.4683333,22.7766667 C25.5271791,22.7272686 25.5914867,22.6847697 25.66,22.65 C25.7116667,22.6233333 25.7466667,22.605 25.785,22.59 C25.8795185,22.5565025 25.9764703,22.5303144 26.075,22.5116667 C26.1031953,22.5081629 26.1315883,22.5064927 26.16,22.5066667 C26.1885677,22.5013545 26.2176226,22.4991196 26.2466667,22.5 L36.2466667,22.5 C36.9370226,22.5 37.4966667,21.9403559 37.4966667,21.25 L37.4966667,20 L26.2466667,20 C25.5563107,19.9990795 24.9974129,19.4386893 24.9983334,18.7483333 C24.9992538,18.0579774 25.5596441,17.4990795 26.25,17.5 L37.5,17.5 L37.5,3.75 C37.5,3.05964406 36.9403559,2.5 36.25,2.5 L8.75,2.5 C8.06,2.5 7.5,3.06 7.5,3.75 C7.5,4.44035594 6.94035594,5 6.25,5 C5.55964406,5 5,4.44035594 5,3.75 C5.00183782,1.67969392 6.67969392,0.00183782273 8.75,0 L36.25,0 Z M11.25,20 L3.75,20 C3.05964406,20 2.5,20.5596441 2.5,21.25 L2.5,32.5 L12.5,32.5 L12.5,21.25 C12.5,20.5596441 11.9403559,20 11.25,20 Z M18.75,7.5 C20.8203061,7.50183782 22.4981622,9.17969392 22.5,11.25 L22.5,26.25 C22.4981622,28.3203061 20.8203061,29.9981622 18.75,30 C18.0596441,30 17.5,29.4403559 17.5,28.75 C17.5,28.0596441 18.0596441,27.5 18.75,27.5 C19.4403559,27.5 20,26.9403559 20,26.25 L20,25 L18.75,25 C18.0596441,25 17.5,24.4403559 17.5,23.75 C17.5,23.0596441 18.0596441,22.5 18.75,22.5 L20,22.5 L20,15 L6.25,15 C5.55964406,15 5,14.4403559 5,13.75 L5,11.25 C5.00183782,9.17969392 6.67969392,7.50183782 8.75,7.5 L18.75,7.5 Z M18.75,10 L8.75,10 C8.05964406,10 7.5,10.5596441 7.5,11.25 L7.5,12.5 L20,12.5 L20,11.25 C20,10.5596441 19.4403559,10 18.75,10 Z" id="Combined-Shape"></path>
        </g>
    </g>
</svg>