<?xml version="1.0" encoding="UTF-8"?>
<svg width="38px" height="36px" viewBox="0 0 38 36" version="1.1" xmlns="http://www.w3.org/2000/svg" xmlns:xlink="http://www.w3.org/1999/xlink">
    <!-- Generator: Sketch 61 (89581) - https://sketch.com -->
    <title>icon-publisher</title>
    <desc>Created with Sketch.</desc>
    <g id="Page-1" stroke="none" stroke-width="1" fill="none" fill-rule="evenodd">
        <g id="icon-publisher" fill="#4EA1FF" fill-rule="nonzero">
            <path d="M34,0.833333333 C36.0703061,0.835171156 37.7481622,2.51302725 37.75,4.58333333 L37.75,32.0833333 C37.7481622,34.1536394 36.0703061,35.8314955 34,35.8333333 L4,35.8333333 C1.92969392,35.8314955 0.251837823,34.1536394 0.25,32.0833333 L0.25,4.58333333 C0.251837823,2.51302725 1.92969392,0.835171156 4,0.833333333 L34,0.833333333 Z M35.25,10.8333333 L15.25,10.8333333 L15.25,33.3333333 L34,33.3333333 C34.6903559,33.3333333 35.25,32.7736893 35.25,32.0833333 L35.25,10.8333333 Z M12.75,10.8333333 L2.75,10.8333333 L2.75,32.0833333 C2.75,32.7733333 3.31,33.3333333 4,33.3333333 L12.75,33.3333333 L12.75,10.8333333 Z M9,28.3333333 C9.69035594,28.3333333 10.25,28.8929774 10.25,29.5833333 C10.25,30.2736893 9.69035594,30.8333333 9,30.8333333 L6.5,30.8333333 C5.80964406,30.8333333 5.25,30.2736893 5.25,29.5833333 C5.25,28.8929774 5.80964406,28.3333333 6.5,28.3333333 L9,28.3333333 Z M30.25,13.3333333 C31.6283333,13.3333333 32.75,14.455 32.75,15.8333333 L32.75,28.3333333 C32.75,29.7116667 31.6283333,30.8333333 30.25,30.8333333 L20.25,30.8333333 C18.8716667,30.8333333 17.75,29.7116667 17.75,28.3333333 L17.75,15.8333333 C17.75,14.455 18.8716667,13.3333333 20.25,13.3333333 L30.25,13.3333333 Z M30.25,23.3333333 L20.25,23.3333333 L20.25,28.3333333 L30.25,28.3333333 L30.25,23.3333333 Z M9,23.3333333 C9.69035594,23.3333333 10.25,23.8929774 10.25,24.5833333 C10.25,25.2736893 9.69035594,25.8333333 9,25.8333333 L6.5,25.8333333 C5.80964406,25.8333333 5.25,25.2736893 5.25,24.5833333 C5.25,23.8929774 5.80964406,23.3333333 6.5,23.3333333 L9,23.3333333 Z M9,18.3333333 C9.69035594,18.3333333 10.25,18.8929774 10.25,19.5833333 C10.25,20.2736893 9.69035594,20.8333333 9,20.8333333 L6.5,20.8333333 C5.80964406,20.8333333 5.25,20.2736893 5.25,19.5833333 C5.25,18.8929774 5.80964406,18.3333333 6.5,18.3333333 L9,18.3333333 Z M30.25,15.8333333 L20.25,15.8333333 L20.25,20.8333333 L30.25,20.8333333 L30.25,15.8333333 Z M9,13.3333333 C9.69035594,13.3333333 10.25,13.8929774 10.25,14.5833333 C10.25,15.2736893 9.69035594,15.8333333 9,15.8333333 L6.5,15.8333333 C5.80964406,15.8333333 5.25,15.2736893 5.25,14.5833333 C5.25,13.8929774 5.80964406,13.3333333 6.5,13.3333333 L9,13.3333333 Z M34,3.33333333 L4,3.33333333 C3.30964406,3.33333333 2.75,3.8929774 2.75,4.58333333 L2.75,8.33333333 L35.25,8.33333333 L35.25,4.58333333 C35.25,3.8929774 34.6903559,3.33333333 34,3.33333333 Z" id="Combined-Shape"></path>
        </g>
    </g>
</svg>