<?xml version="1.0" encoding="UTF-8"?>
<svg width="40px" height="40px" viewBox="0 0 40 40" version="1.1" xmlns="http://www.w3.org/2000/svg" xmlns:xlink="http://www.w3.org/1999/xlink">
    <!-- Generator: Sketch 61 (89581) - https://sketch.com -->
    <title>icon-whitelist</title>
    <desc>Created with Sketch.</desc>
    <g id="Page-1" stroke="none" stroke-width="1" fill="none" fill-rule="evenodd">
        <g id="icon-whitelist" fill="#4EA1FF" fill-rule="nonzero">
            <path d="M1.25,22.5 C1.94035594,22.5 2.5,23.0596441 2.5,23.75 L2.5,25 L10,25 C13,25 15.54,27.1133333 16.125,30 L21.25,30 C24.7002566,30.0036744 27.4963256,32.7997434 27.5,36.25 C27.5,36.9403559 26.9403559,37.5 26.25,37.5 L2.5,37.5 L2.5,38.75 C2.5,39.4403559 1.94035594,40 1.25,40 C0.559644063,40 0,39.4403559 0,38.75 L0,23.75 C0,23.0596441 0.559644063,22.5 1.25,22.5 Z M10,27.5 L2.5,27.5 L2.5,35 L24.785,35 C24.2495426,33.5062777 22.8367797,32.5071526 21.25,32.5 L10,32.5 C9.30964406,32.5 8.75,31.9403559 8.75,31.25 C8.75,30.5596441 9.30964406,30 10,30 L13.53,30 C12.9959885,28.5073707 11.5852577,27.5082696 10,27.5 Z M36.25,0 C38.3203061,0.00183782273 39.9981622,1.67969392 40,3.75 L40,23.75 C39.9981622,25.8203061 38.3203061,27.4981622 36.25,27.5 L21.25,27.5 C20.5596441,27.5 20,26.9403559 20,26.25 C20,25.5596441 20.5596441,25 21.25,25 L36.25,25 C36.9403559,25 37.5,24.4403559 37.5,23.75 L37.5,10 L7.5,10 L7.5,18.755 C7.5,19.4453559 6.94035594,20.005 6.25,20.005 C5.55964406,20.005 4.99997478,19.4453559 4.99997478,18.755 L4.99997478,3.755 C4.9963454,2.76118533 5.38997406,1.80711587 6.09333333,1.105 C6.79322369,0.397928167 7.74678121,0 8.74166667,0 L36.25,0 Z M36.25,2.49998989 L8.75166667,2.49998989 C8.4190061,2.49866102 8.09960791,2.63033192 7.86453602,2.86571682 C7.62946412,3.10110172 7.49821836,3.42067484 7.49998209,3.75333333 L7.49998209,7.5 L37.5,7.5 L37.5,3.75 C37.5,3.05964406 36.9403559,2.49998989 36.25,2.49998989 Z" id="Combined-Shape"></path>
        </g>
    </g>
</svg>