<?xml version="1.0" encoding="UTF-8"?>
<svg width="37px" height="40px" viewBox="0 0 37 40" version="1.1" xmlns="http://www.w3.org/2000/svg" xmlns:xlink="http://www.w3.org/1999/xlink">
    <title>technology-audience-icon</title>
    <g id="Page-1" stroke="none" stroke-width="1" fill="none" fill-rule="evenodd">
        <g id="Artboard" transform="translate(-988.000000, -198.000000)" fill="#4EA1FF" fill-rule="nonzero">
            <g id="technology-audience-icon" transform="translate(988.000000, 198.000000)">
                <path d="M35.2083333,40 C34.7903313,40 34.3999366,39.7913071 34.1683333,39.4433333 L29.1683333,31.9433333 C29.0309709,31.7382346 28.9578585,31.4968475 28.9583333,31.25 L28.9583333,22.5 C28.9583333,20.52 25.1383333,17.8383333 22.7083333,16.1633333 L22.7083333,21.4783333 L25.4566667,23.6816667 C25.9761367,24.1186877 26.0518554,24.8904279 25.6272298,25.4200782 C25.2026041,25.9497286 24.4328684,26.0436599 23.8933333,25.6316667 L20.745,23.1083333 C20.6968911,23.0749573 20.65122,23.0381977 20.6083333,22.9983333 L17.8133333,20.7583333 C17.7763353,20.7289475 17.7412631,20.6972155 17.7083333,20.6633333 C17.5483333,20.5033333 17.3116667,20.4116667 17.0583333,20.4116667 C16.805,20.4116667 16.5683333,20.505 16.4066667,20.6666667 C16.232616,20.8388504 16.1346769,21.0735051 16.1346769,21.3183333 C16.1346769,21.5631616 16.232616,21.7978162 16.4066667,21.97 L22.3483333,28.67 C22.551622,28.8986415 22.6637363,29.1940538 22.6633333,29.5 L22.6633333,33.6666667 C22.6633333,34.6933333 24.1183333,36.7616667 25.1516667,37.9033333 C25.451472,38.2343994 25.551882,38.7002614 25.415073,39.1254335 C25.278264,39.5506057 24.9250207,39.8704942 24.4884063,39.9646002 C24.051792,40.0587062 23.5981387,39.9127328 23.2983333,39.5816667 C22.9916667,39.2416667 21.6266667,37.685 20.805,35.9933333 C19.7381894,36.9631545 18.3484147,37.5008826 16.9066667,37.5016667 L6.01333333,37.5016667 C2.81041223,37.498915 0.213844926,34.9045842 0.208333333,31.7016667 L0.208333333,5.80333333 C0.212007155,2.59976382 2.80809715,0.00367382188 6.01166667,0 L16.4583333,0 C19.9085899,0.00367439775 22.7046589,2.79974345 22.7083333,6.25 L22.7083333,13.1183333 C23.055,13.3683333 23.455,13.6433333 23.9216667,13.965 C27.1033333,16.1533333 31.4583333,19.1516667 31.4583333,22.5016667 L31.4583333,30.8733333 L36.2483333,38.0583333 C36.5018704,38.4420515 36.5245484,38.9339054 36.3073962,39.3393257 C36.0902441,39.7447459 35.6682444,39.9984206 35.2083333,40 Z M2.70833333,31.695 C2.70833333,33.5166667 4.19,35 6.01166667,35 L16.9033333,35 C18.4872488,34.9921645 19.8483029,33.873957 20.1633333,32.3216667 L20.1633333,29.975 L14.5866667,23.6833333 C13.9720039,23.0501546 13.6308128,22.2007683 13.6366667,21.3183333 C13.6366667,20.4033333 13.9933333,19.545 14.6383333,18.8983333 C15.2786608,18.2543614 16.150198,17.8936219 17.0583333,17.8966667 C17.945,17.8966667 18.785,18.2333333 19.4233333,18.845 L20.2066667,19.4733333 L20.2066667,6.25 C20.2048288,4.17969392 18.5269727,2.50183782 16.4566667,2.5 L6.01333333,2.5 C4.18906349,2.50091856 2.71017208,3.97906418 2.70833333,5.80333333 L2.70833333,25 L11.4583333,25 C12.1486893,25 12.7083333,25.5596441 12.7083333,26.25 C12.7083333,26.9403559 12.1486893,27.5 11.4583333,27.5 L2.70833333,27.5 L2.70833333,31.695 Z" id="Shape"></path>
                <path d="M11.2983333,13.91 C8.58223478,13.9072439 6.3810894,11.7060986 6.37833333,8.99 C6.3810894,6.27390145 8.58223478,4.07275606 11.2983333,4.07 C14.0144319,4.07275606 16.2155773,6.27390145 16.2183333,8.99 C16.214661,11.7057184 14.0140517,13.9063276 11.2983333,13.91 L11.2983333,13.91 Z M11.2983333,6.57 C9.99673576,6.61831513 8.96649675,7.68750601 8.96649675,8.99 C8.96649675,10.292494 9.99673576,11.3616849 11.2983333,11.41 C12.5999309,11.3616849 13.6301699,10.292494 13.6301699,8.99 C13.6301699,7.68750601 12.5999309,6.61831513 11.2983333,6.57 Z" id="Shape"></path>
                <path d="M6.45833333,17.3183374 C6.10801458,17.3192315 5.77348359,17.1726931 5.53662025,16.914585 C5.29975691,16.6564769 5.1824216,16.3106201 5.21333333,15.9616667 C5.24051577,15.6309183 5.39896916,15.3248151 5.65333333,15.1116667 C7.23883641,13.7808009 9.24330506,13.0524398 11.3133333,13.0549933 C12.8233333,13.0549933 14.31,13.4433333 15.615,14.18 C16.1112981,14.4585977 16.3567386,15.0372857 16.2120681,15.5877391 C16.0673977,16.1381924 15.5691454,16.5214227 15,16.52 C14.7845786,16.5193557 14.5728905,16.4637087 14.385,16.3583333 C12.1038245,15.0773528 9.26791189,15.3421619 7.26333333,17.0233333 C7.0382409,17.2136178 6.75307852,17.3181183 6.45833333,17.3183374 L6.45833333,17.3183374 Z" id="Path"></path>
                <circle id="Oval" cx="11.4583333" cy="31.25" r="1.875"></circle>
            </g>
        </g>
    </g>
</svg>